<?xml version="1.0" encoding="UTF-8" standalone="no"?>
<!-- Created with Inkscape (http://www.inkscape.org/) -->

<svg
   width="99.492134mm"
   height="61.489521mm"
   viewBox="0 0 99.492134 61.489521"
   version="1.1"
   id="svg1"
   xmlns="http://www.w3.org/2000/svg"
   xmlns:svg="http://www.w3.org/2000/svg">
  <style
     id="style1" />
  <defs
     id="defs1" />
  <g
     id="bg">
    <path
       id="rect54"
       style="fill:#000400;stroke-width:5.66499"
       d="m 8.8598275,14.345216 2.0404435,3.534152 20.783571,3.99e-4 -9.9e-5,-3.534841 z"
       transform="rotate(30)" />
    <path
       id="rect55"
       style="fill:#000400;stroke-width:5.66499"
       d="m -77.506738,63.738173 23.639106,-1.38e-4 1e-4,3.534841 -21.598504,-1.03e-4 z"
       transform="matrix(-0.8660254,0.5,0.5,0.8660254,0,0)" />
    <path
       id="rect56"
       style="fill:#000400;stroke-width:5.66499"
       d="m 17.875815,29.961363 2.040444,3.534153 20.783312,-4.9e-5 1.59e-4,-3.534394 z"
       transform="rotate(30)" />
    <path
       id="rect57"
       style="fill:#000400;stroke-width:5.66499"
       d="m -68.490751,79.354321 23.639106,-1.38e-4 -1.58e-4,3.534393 -21.598504,-1.03e-4 z"
       transform="matrix(-0.8660254,0.5,0.5,0.8660254,0,0)" />
  </g>
  <g
     id="layer1"
     transform="translate(-20.263931,-14.711507)">
    <g
       id="egg-tl"
       transform="translate(20.263931,14.711507)">
      <ellipse
         style="fill:#000400;stroke-width:5.66499"
         id="egg-tl-1"
         cx="4.1415548"
         cy="14.722656"
         rx="1.6315231"
         ry="2.6216006" />
      <ellipse
         style="fill:#000400;stroke-width:5.66499"
         id="egg-tl-2"
         cx="20.368374"
         cy="0.16777065"
         rx="1.6315231"
         ry="2.6216006"
         transform="rotate(60)" />
      <ellipse
         style="fill:#000400;stroke-width:5.66499"
         id="egg-tl-3"
         cx="0.12803996"
         cy="-26.969364"
         rx="1.6315231"
         ry="2.6216006"
         transform="rotate(142.44329)" />
      <ellipse
         style="fill:#000400;stroke-width:5.66499"
         id="egg-tl-4"
         cx="-26.724398"
         cy="-24.80451"
         rx="1.6315231"
         ry="2.6216006"
         transform="rotate(-174.14845)" />
    </g>
    <g
       id="egg-tr"
       transform="translate(20.263931,14.711507)">
      <ellipse
         style="fill:#000400;stroke-width:5.66499"
         id="egg-tr-1"
         cx="-94.114319"
         cy="14.722656"
         rx="1.6315231"
         ry="2.6216006"
         transform="scale(-1,1)" />
      <ellipse
         style="fill:#000400;stroke-width:5.66499"
         id="egg-tr-2"
         cx="-28.759562"
         cy="85.25985"
         rx="1.6315231"
         ry="2.6216006"
         transform="matrix(-0.5,0.8660254,0.8660254,0.5,0,0)" />
      <ellipse
         style="fill:#000400;stroke-width:5.66499"
         id="egg-tr-3"
         cx="78.020424"
         cy="32.922146"
         rx="1.6315231"
         ry="2.6216006"
         transform="matrix(0.79275041,0.60954637,0.60954637,-0.79275041,0,0)" />
      <ellipse
         style="fill:#000400;stroke-width:5.66499"
         id="egg-tr-4"
         cx="71.019501"
         cy="-34.821831"
         rx="1.6315231"
         ry="2.6216006"
         transform="matrix(0.99478938,-0.10195137,-0.10195137,-0.99478938,0,0)" />
    </g>
    <g
       id="egg-bl"
       transform="translate(20.263931,14.711507)">
      <ellipse
         style="fill:#000400;stroke-width:5.66499"
         id="egg-bl-1"
         cx="4.1415548"
         cy="33.60841"
         rx="1.6315231"
         ry="2.6216006" />
      <ellipse
         style="fill:#000400;stroke-width:5.66499"
         id="egg-bl-2"
         cx="36.723915"
         cy="9.6106462"
         rx="1.6315231"
         ry="2.6216006"
         transform="rotate(60)" />
      <ellipse
         style="fill:#000400;stroke-width:5.66499"
         id="egg-bl-3"
         cx="11.639782"
         cy="-41.941051"
         rx="1.6315231"
         ry="2.6216006"
         transform="rotate(142.44329)" />
      <ellipse
         style="fill:#000400;stroke-width:5.66499"
         id="egg-bl-4"
         cx="-28.649826"
         cy="-43.591854"
         rx="1.6315231"
         ry="2.6216006"
         transform="rotate(-174.14845)" />
    </g>
    <g
       id="egg-br"
       transform="translate(20.263931,14.711507)">
      <ellipse
         style="fill:#000400;stroke-width:5.66499"
         id="egg-br-1"
         cx="-94.114319"
         cy="33.60841"
         rx="1.6315231"
         ry="2.6216006"
         transform="scale(-1,1)" />
      <ellipse
         style="fill:#000400;stroke-width:5.66499"
         id="egg-br-2"
         cx="-12.40402"
         cy="94.702728"
         rx="1.6315231"
         ry="2.6216006"
         transform="matrix(-0.5,0.8660254,0.8660254,0.5,0,0)" />
      <ellipse
         style="fill:#000400;stroke-width:5.66499"
         id="egg-br-3"
         cx="89.532166"
         cy="17.950459"
         rx="1.6315231"
         ry="2.6216006"
         transform="matrix(0.79275041,0.60954637,0.60954637,-0.79275041,0,0)" />
      <ellipse
         style="fill:#000400;stroke-width:5.66499"
         id="egg-br-4"
         cx="69.09407"
         cy="-53.609177"
         rx="1.6315231"
         ry="2.6216006"
         transform="matrix(0.99478938,-0.10195137,-0.10195137,-0.99478938,0,0)" />
    </g>
    <path
       id="egg-broken-l"
       style="fill:#000400;stroke-width:5.66499"
       d="m 26.970447,57.238367 0.133325,0.434598 -1.144633,0.462505 0.313159,0.732255 -0.881083,0.287837 0.487309,1.057817 -0.153996,0.0186 a 2.6216006,1.6315231 27.732012 0 0 2.654618,-0.418062 2.6216006,1.6315231 27.732012 0 0 -1.408699,-2.575553 z m -3.905705,0.0072 a 1.6315231,2.6216006 57.732012 0 0 -0.152962,0.08733 1.6315231,2.6216006 57.732012 0 0 -1.346171,2.779158 1.6315231,2.6216006 57.732012 0 0 3.087667,-0.02015 1.6315231,2.6216006 57.732012 0 0 0.380855,-0.271301 l 0.06098,-0.14211 -1.159619,-0.10697 0.191203,-0.906922 -0.79065,-0.09457 0.171566,-1.223181 z"
       transform="translate(20.263931,14.711507)" />
    <path
       id="egg-broken-r"
       style="fill:#000400;stroke-width:5.66499"
       d="m 91.654902,71.949874 -0.133325,0.434598 1.14515,0.462505 -0.313676,0.732255 0.881083,0.287837 -0.487309,1.057817 0.153996,0.0186 a 1.6315231,2.6216006 62.267988 0 1 -2.654619,-0.418062 1.6315231,2.6216006 62.267988 0 1 1.4087,-2.575553 z m 3.905705,0.0072 a 2.6216006,1.6315231 32.267988 0 1 0.152962,0.08733 2.6216006,1.6315231 32.267988 0 1 1.346171,2.779158 2.6216006,1.6315231 32.267988 0 1 -3.087667,-0.02015 2.6216006,1.6315231 32.267988 0 1 -0.380855,-0.271301 l -0.06098,-0.14211 1.159619,-0.10697 -0.191203,-0.906922 0.791166,-0.09457 -0.172082,-1.223181 z" />
    <g
       id="player"
       transform="translate(20.263931,14.711507)">
      <path
         style="fill:#000400;stroke-width:5.66499"
         d="m 77.769267,32.603094 c -0.09862,0.581791 -0.295859,1.745373 -1.356029,2.289888 -1.06017,0.544515 -2.983191,0.469967 -3.959725,-0.09907 -0.976533,-0.569035 -1.006539,-1.632517 -0.929682,-2.25054 0.07686,-0.618023 0.260573,-0.790564 0.440853,-0.755831 0.18028,0.03473 0.357112,0.276737 0.449273,0.642259 0.09216,0.365522 0.09965,0.854538 0.446715,1.182769 0.347068,0.32823 1.033689,0.495658 1.727758,0.426846 0.69407,-0.06881 1.395546,-0.373854 1.857114,-0.877682 0.461568,-0.503827 0.683207,-1.206407 0.89576,-1.526202 0.212553,-0.319795 0.41601,-0.256795 0.502261,-0.128698 0.08625,0.128096 0.0553,0.321282 0.03982,0.417876 -0.01548,0.09659 -0.0155,0.09659 -0.114115,0.678384 z"
         id="player-tr" />
      <path
         style="fill:#000400;stroke-width:5.66499"
         d="m 77.769267,32.603094 c -0.09862,0.581791 -0.295859,1.745373 -1.356029,2.289888 -1.06017,0.544515 -2.983191,0.469967 -3.959725,-0.09907 -0.976533,-0.569035 -1.006539,-1.632517 -0.929682,-2.25054 0.07686,-0.618023 0.260573,-0.790564 0.440853,-0.755831 0.18028,0.03473 0.357112,0.276737 0.449273,0.642259 0.09216,0.365522 0.09965,0.854538 0.446715,1.182769 0.347068,0.32823 1.033689,0.495658 1.727758,0.426846 0.69407,-0.06881 1.395546,-0.373854 1.857114,-0.877682 0.461568,-0.503827 0.683207,-1.206407 0.89576,-1.526202 0.212553,-0.319795 0.41601,-0.256795 0.502261,-0.128698 0.08625,0.128096 0.0553,0.321282 0.03982,0.417876 -0.01548,0.09659 -0.0155,0.09659 -0.114115,0.678384 z"
         id="player-tl"
         transform="matrix(-1,0,0,1,98.887511,0)" />
      <path
         style="fill:#000400;stroke-width:5.66499"
         d="m 77.769267,32.603094 c -0.09862,0.581791 -0.295859,1.745373 -1.356029,2.289888 -1.06017,0.544515 -2.983191,0.469967 -3.959725,-0.09907 -0.976533,-0.569035 -1.006539,-1.632517 -0.929682,-2.25054 0.07686,-0.618023 0.260573,-0.790564 0.440853,-0.755831 0.18028,0.03473 0.357112,0.276737 0.449273,0.642259 0.09216,0.365522 0.09965,0.854538 0.446715,1.182769 0.347068,0.32823 1.033689,0.495658 1.727758,0.426846 0.69407,-0.06881 1.395546,-0.373854 1.857114,-0.877682 0.461568,-0.503827 0.683207,-1.206407 0.89576,-1.526202 0.212553,-0.319795 0.41601,-0.256795 0.502261,-0.128698 0.08625,0.128096 0.0553,0.321282 0.03982,0.417876 -0.01548,0.09659 -0.0155,0.09659 -0.114115,0.678384 z"
         id="player-br"
         transform="translate(0,17.824908)" />
      <path
         style="fill:#000400;stroke-width:5.66499"
         d="m 77.769267,32.603094 c -0.09862,0.581791 -0.295859,1.745373 -1.356029,2.289888 -1.06017,0.544515 -2.983191,0.469967 -3.959725,-0.09907 -0.976533,-0.569035 -1.006539,-1.632517 -0.929682,-2.25054 0.07686,-0.618023 0.260573,-0.790564 0.440853,-0.755831 0.18028,0.03473 0.357112,0.276737 0.449273,0.642259 0.09216,0.365522 0.09965,0.854538 0.446715,1.182769 0.347068,0.32823 1.033689,0.495658 1.727758,0.426846 0.69407,-0.06881 1.395546,-0.373854 1.857114,-0.877682 0.461568,-0.503827 0.683207,-1.206407 0.89576,-1.526202 0.212553,-0.319795 0.41601,-0.256795 0.502261,-0.128698 0.08625,0.128096 0.0553,0.321282 0.03982,0.417876 -0.01548,0.09659 -0.0155,0.09659 -0.114115,0.678384 z"
         id="player-bl"
         transform="matrix(-1,0,0,1,98.887511,17.824908)" />
    </g>
  </g>
</svg>
